<?xml version="1.0" standalone="no"?>
<!DOCTYPE svg PUBLIC "-//W3C//DTD SVG 20010904//EN"
 "http://www.w3.org/TR/2001/REC-SVG-20010904/DTD/svg10.dtd">
<svg version="1.0" xmlns="http://www.w3.org/2000/svg"
 width="260.000000pt" height="260.000000pt" viewBox="0 0 260.000000 260.000000"
 preserveAspectRatio="xMidYMid meet">
<metadata>
Created by potrace 1.11, written by Peter Selinger 2001-2013
</metadata>
<g transform="translate(0.000000,260.000000) scale(0.100000,-0.100000)"
fill="#000000" stroke="none">
<path d="M1190 2496 c-3 -2 -26 -7 -52 -10 -207 -28 -449 -178 -569 -351 -19
-27 -37 -52 -40 -55 -22 -20 -82 -176 -105 -271 -13 -53 -12 -241 1 -285 7
-24 11 -44 9 -44 -11 0 76 -222 132 -335 96 -198 176 -334 327 -560 87 -130
265 -383 282 -401 5 -6 33 -43 60 -82 28 -40 53 -72 57 -72 6 0 109 130 148
186 8 12 51 73 96 136 311 434 504 775 596 1051 38 113 41 131 42 237 1 134
-4 172 -39 276 -49 147 -145 282 -272 384 -82 66 -227 142 -318 166 -33 8 -69
17 -80 20 -26 7 -270 16 -275 10z"/>
</g>
</svg>
